<?xml version="1.0" encoding="UTF-8" standalone="no"?>
<!-- Created with Inkscape (http://www.inkscape.org/) -->

<svg
   width="203.98187mm"
   height="167.36137mm"
   viewBox="0 0 203.98187 167.36137"
   version="1.1"
   id="svg36627"
   inkscape:version="1.1.2 (b8e25be833, 2022-02-05)"
   sodipodi:docname="4.4-Zeichnung.svg"
   xmlns:inkscape="http://www.inkscape.org/namespaces/inkscape"
   xmlns:sodipodi="http://sodipodi.sourceforge.net/DTD/sodipodi-0.dtd"
   xmlns="http://www.w3.org/2000/svg"
   xmlns:svg="http://www.w3.org/2000/svg">
  <sodipodi:namedview
     id="namedview36629"
     pagecolor="#ffffff"
     bordercolor="#999999"
     borderopacity="1"
     inkscape:pageshadow="0"
     inkscape:pageopacity="0"
     inkscape:pagecheckerboard="0"
     inkscape:document-units="px"
     showgrid="false"
     showborder="true"
     inkscape:snap-smooth-nodes="true"
     inkscape:object-paths="true"
     inkscape:snap-intersection-paths="true"
     inkscape:zoom="0.70710678"
     inkscape:cx="454.66966"
     inkscape:cy="410.12193"
     inkscape:window-width="1920"
     inkscape:window-height="1017"
     inkscape:window-x="-8"
     inkscape:window-y="-8"
     inkscape:window-maximized="1"
     inkscape:current-layer="layer1"
     inkscape:object-nodes="true"
     inkscape:snap-midpoints="true"
     inkscape:snap-bbox="true"
     inkscape:bbox-nodes="true"
     inkscape:snap-bbox-edge-midpoints="false"
     inkscape:snap-bbox-midpoints="false"
     inkscape:bbox-paths="true"
     inkscape:snap-nodes="false"
     units="mm"
     lock-margins="false"
     fit-margin-top="0"
     fit-margin-left="0"
     fit-margin-right="0"
     fit-margin-bottom="0" />
  <defs
     id="defs36624">
    <rect
       x="-324"
       y="660"
       width="322"
       height="110"
       id="rect45474" />
    <rect
       x="-446"
       y="740"
       width="482"
       height="162"
       id="rect39858" />
    <rect
       x="-588"
       y="760"
       width="638"
       height="190"
       id="rect33918" />
    <rect
       x="-466"
       y="644"
       width="428"
       height="174"
       id="rect17130" />
    <rect
       x="-412"
       y="638"
       width="146"
       height="84"
       id="rect12188" />
    <rect
       x="-312"
       y="678"
       width="464"
       height="128"
       id="rect8202" />
    <rect
       x="-763.67529"
       y="578.41333"
       width="534.57269"
       height="363.45288"
       id="rect10103" />
    <rect
       x="-627.91083"
       y="420.02142"
       width="234.75945"
       height="354.96759"
       id="rect8683" />
    <rect
       x="-506"
       y="750"
       width="640"
       height="232"
       id="rect6515" />
  </defs>
  <g
     inkscape:label="Ebene 1"
     inkscape:groupmode="layer"
     id="layer1"
     transform="translate(4.119532,-34.657812)">
    <g
       id="g61998">
      <path
         id="path39878"
         style="color:#000000;fill:#000000;stroke:none;stroke-width:1;stroke-opacity:1;-inkscape-stroke:none;paint-order:fill markers stroke"
         d="m 72.702653,34.657812 c -3.04451,0 -5.552633,2.508123 -5.552633,5.552633 0,1.809766 0.885918,3.429196 2.24431,4.445207 v 12.536702 l 8.480618,14.687476 v 35.033 H 68.367001 V 82.998531 L 56.982168,71.614212 h -8.531781 c -1.015965,-1.358906 -2.636073,-2.24534 -4.446241,-2.24534 -3.04451,0 -5.55263,2.508121 -5.55263,5.552632 0,3.044499 2.50812,5.550566 5.55263,5.550566 1.80951,0 3.429172,-0.885253 4.445209,-2.242759 h 5.792928 l 7.509618,7.509621 V 106.91283 H 55.02673 c -3.623069,0 -6.644555,3.01942 -6.644555,6.64249 v 6.8678 H 18.164899 L 6.923724,109.18194 c 0.0397,-0.26565 0.06046,-0.5369 0.06046,-0.81286 0,-3.04451 -2.508123,-5.55315 -5.552634,-5.55315 -3.044499,0 -5.551082,2.50864 -5.551082,5.55315 0,3.0445 2.506583,5.55056 5.551082,5.55056 0.276839,0 0.548963,-0.021 0.815454,-0.061 l 13.178007,13.18008 h 32.957161 v 15.11742 H 27.979287 c -1.016474,-1.35956 -2.637618,-2.24638 -4.448308,-2.24638 -3.044499,0 -5.550566,2.50813 -5.550566,5.55264 0,3.0445 2.506067,5.55056 5.550566,5.55056 1.80992,0 3.430199,-0.88577 4.446757,-2.24379 h 20.404439 v 30.72371 c 0,3.62307 3.021486,6.64249 6.644555,6.64249 h 65.93758 c 3.62307,0 6.64249,-3.01942 6.64249,-6.64249 V 113.5553 c 0,-3.62307 -3.01942,-6.64249 -6.64249,-6.64249 h -6.30246 V 77.039721 l 9.63042,-9.629903 c 0.26616,0.03986 0.53794,0.06046 0.81442,0.06046 3.0445,0 5.55108,-2.506066 5.55108,-5.550565 0,-3.04451 -2.50658,-5.552633 -5.55108,-5.552633 -3.04451,0 -5.55263,2.508123 -5.55263,5.552633 0,0.275759 0.0208,0.546891 0.0605,0.812353 L 108.04675,74.29932 v 32.61351 h -7.98039 V 90.961352 c 1.35802,-1.015989 2.24379,-2.635814 2.24379,-4.445725 0,-3.04451 -2.506073,-5.55263 -5.550567,-5.55263 -3.04451,0 -5.552633,2.50812 -5.552633,5.55263 0,1.81043 0.886624,3.430826 2.245857,4.446757 v 15.950446 h -8.96276 V 70.106294 L 76.009945,55.418819 V 44.655652 c 1.357829,-1.016011 2.243275,-2.635441 2.243275,-4.445207 0,-3.04451 -2.506067,-5.552633 -5.550567,-5.552633 z m 0,3.673678 c 1.059352,0 1.878952,0.819606 1.878955,1.878955 0,1.052764 -0.809538,1.866292 -1.859317,1.876371 h -0.03927 c -1.049787,-0.01008 -1.859317,-0.823607 -1.859317,-1.876371 0,-1.059349 0.819595,-1.878955 1.878954,-1.878955 z m 52.404037,21.709269 c 1.05935,0 1.87896,0.819605 1.87896,1.878955 0,1.059352 -0.81961,1.876888 -1.87896,1.876888 -1.05936,0 -1.87896,-0.817536 -1.87896,-1.876888 0,-1.05935 0.8196,-1.878955 1.87896,-1.878955 z m -81.102544,13.00179 c 1.051031,0 1.865707,0.806892 1.878439,1.85415 v 0.04961 c -0.01273,1.047226 -0.827408,1.852084 -1.878439,1.852084 -1.059357,0 -1.878438,-0.817539 -1.878435,-1.876888 0,-1.059352 0.819078,-1.878955 1.878435,-1.878955 z m 52.755437,11.594124 c 1.05935,0 1.878955,0.819605 1.878955,1.878954 0,1.059352 -0.819605,1.876888 -1.878955,1.876888 -1.05936,0 -1.878954,-0.817536 -1.878954,-1.876888 0,-1.059349 0.819594,-1.878954 1.878954,-1.878954 z m 62.839057,13.347506 c -3.0445,0 -5.55056,2.508121 -5.55056,5.552631 0,1.80951 0.88525,3.42917 2.24275,4.44521 v 5.79293 l -7.50962,7.50962 h -21.1739 v 6.6151 h 23.9143 l 11.38432,-11.38484 v -8.53178 c 1.35891,-1.01596 2.24534,-2.63607 2.24534,-4.44624 0,-3.04451 -2.50812,-5.552631 -5.55263,-5.552631 z m 0,3.674201 c 1.05935,0 1.87896,0.81907 1.87895,1.87843 0,1.05103 -0.80689,1.86571 -1.85415,1.87844 h -0.0496 c -1.04722,-0.0127 -1.85208,-0.82741 -1.85208,-1.87844 0,-1.05936 0.81754,-1.87843 1.87689,-1.87843 z M 1.431553,106.49012 c 1.05935,0 1.878955,0.8196 1.878955,1.87896 0,1.05935 -0.819605,1.87843 -1.878955,1.87843 -1.059351,0 -1.877406,-0.81908 -1.877406,-1.87843 0,-1.05936 0.818055,-1.87896 1.877406,-1.87896 z m 53.56107,7.03213 c 0.0063,0.003 0.01638,0.006 0.03411,0.006 h 65.937577 c 0.0172,0 0.0269,-0.002 0.0331,-0.005 -0.003,0.006 -0.006,0.0156 -0.006,0.0326 v 65.93757 c 0,0.0182 0.003,0.029 0.006,0.0351 -0.006,-0.003 -0.0161,-0.006 -0.0336,-0.006 H 55.026708 c -0.01799,0 -0.02841,0.003 -0.03462,0.006 0.003,-0.006 0.0057,-0.0169 0.0057,-0.0351 v -65.93759 c 0,-0.0172 -0.0024,-0.0269 -0.0052,-0.0331 z m 4.465878,4.46588 v 3.76359 53.30837 h 57.072489 v -57.07196 z m 7.531322,7.52925 h 42.011907 v 42.01139 H 66.989823 Z m 127.319877,1.1653 c -1.80977,0 -3.4292,0.88592 -4.44521,2.24431 h -12.5367 l -14.68747,8.48062 h -35.03301 v 6.6151 h 36.80654 l 14.68748,-8.4801 h 10.76316 c 1.01601,1.35783 2.63544,2.24327 4.44521,2.24327 3.04451,0 5.55264,-2.50606 5.55264,-5.55056 0,-3.04451 -2.50813,-5.55264 -5.55264,-5.55264 z m 0,3.67368 c 1.05935,0 1.87896,0.8196 1.87896,1.87896 0,1.05935 -0.81961,1.87895 -1.87896,1.87895 -1.05276,0 -1.86629,-0.80954 -1.87637,-1.85931 v -0.0393 c 0.0101,-1.04979 0.82361,-1.85932 1.87637,-1.85932 z m -170.778721,13.2271 c 1.051028,0 1.865704,0.80689 1.878439,1.85415 v 0.0496 c -0.01273,1.04726 -0.827411,1.85415 -1.878439,1.85415 -1.059349,0 -1.876888,-0.8196 -1.876888,-1.87895 0,-1.05936 0.817539,-1.87896 1.876888,-1.87896 z m 124.473541,7.15615 c -1.81043,0 -3.43082,0.88663 -4.44676,2.24586 h -15.95045 v 6.61355 h 15.95148 c 1.016,1.35802 2.63581,2.24379 4.44573,2.24379 3.04451,0 5.55263,-2.50606 5.55263,-5.55056 0,-3.04451 -2.50812,-5.55264 -5.55263,-5.55264 z m 0,3.67368 c 1.05935,0 1.87895,0.8196 1.87895,1.87896 0,1.05935 -0.8196,1.87895 -1.87895,1.87895 -1.05935,0 -1.87689,-0.8196 -1.87689,-1.87895 0,-1.05936 0.81754,-1.87896 1.87689,-1.87896 z m -20.39721,13.16612 v 6.6151 h 29.87311 l 9.62991,9.63042 c -0.0399,0.26616 -0.0605,0.53794 -0.0605,0.81442 0,3.0445 2.50606,5.55109 5.55056,5.55109 3.04451,0 5.55264,-2.50659 5.55264,-5.55109 0,-3.04451 -2.50813,-5.55263 -5.55264,-5.55263 -0.27576,0 -0.5469,0.0208 -0.81235,0.0605 l -11.56726,-11.56781 z m 44.99312,15.18099 c 1.05935,0 1.87896,0.81959 1.87896,1.87895 0,1.05936 -0.81961,1.87896 -1.87896,1.87896 -1.05935,0 -1.87689,-0.8196 -1.87689,-1.87896 0,-1.05936 0.81754,-1.87895 1.87689,-1.87895 z" />
      <path
         d="m 42.026319,196.23745 q 0,1.51928 -0.687295,2.42965 -0.681268,0.90434 -1.84485,0.90434 -0.89831,0 -1.477086,-0.65715 v 3.0446 h -2.031746 v -9.03132 h 1.89911 l 0.06029,0.60289 q 0.584806,-0.72347 1.537375,-0.72347 1.205785,0 1.874996,0.89228 0.669208,0.88625 0.669208,2.44172 z m -2.031746,-0.12661 q 0,-1.73633 -1.012857,-1.73633 -0.723471,0 -0.964628,0.51849 v 2.56832 q 0.265271,0.5426 0.976685,0.5426 0.970656,0 1.0008,-1.67604 z"
         id="path49263"
         style="font-size:46.6667px;font-family:Roboto;-inkscape-font-specification:Roboto;white-space:pre;stroke:none;stroke-width:0.264583;stroke-opacity:0.133333" />
      <path
         d="m 46.867543,194.76639 -0.669211,-0.0482 q -0.958596,0 -1.229899,0.60289 v 4.12981 h -2.031746 v -6.52329 h 1.90514 l 0.06632,0.83802 q 0.512458,-0.9586 1.428853,-0.9586 0.325562,0 0.566719,0.0724 z"
         id="path49265"
         style="font-size:46.6667px;font-family:Roboto;-inkscape-font-specification:Roboto;white-space:pre;stroke:none;stroke-width:0.264583;stroke-opacity:0.133333" />
      <path
         d="m 47.126787,196.12893 q 0,-0.97669 0.379823,-1.73633 0.379822,-0.76567 1.091234,-1.17564 0.711414,-0.40997 1.670013,-0.40997 1.465027,0 2.309077,0.91037 0.844047,0.90434 0.844047,2.46583 v 0.0723 q 0,1.52532 -0.850077,2.42363 -0.84405,0.89228 -2.29099,0.89228 -1.392682,0 -2.236729,-0.83199 -0.84405,-0.83802 -0.910368,-2.26688 z m 2.031746,0.1266 q 0,0.90434 0.283361,1.32637 0.283358,0.42202 0.83802,0.42202 1.085204,0 1.109321,-1.67001 v -0.20498 q 0,-1.75442 -1.121378,-1.75442 -1.018889,0 -1.103294,1.51326 z"
         id="path49267"
         style="font-size:46.6667px;font-family:Roboto;-inkscape-font-specification:Roboto;white-space:pre;stroke:none;stroke-width:0.264583;stroke-opacity:0.133333" />
      <path
         d="m 54.078135,196.14099 q 0,-0.98875 0.325561,-1.74839 0.325562,-0.75965 0.934482,-1.16961 0.60892,-0.416 1.416796,-0.416 1.01889,0 1.591636,0.6873 l 0.07235,-0.56672 h 1.84485 v 6.27611 q 0,0.86213 -0.403937,1.49517 -0.397909,0.63907 -1.157554,0.97668 -0.759643,0.34365 -1.760445,0.34365 -0.717442,0 -1.39268,-0.2713 -0.66921,-0.2713 -1.024916,-0.70538 l 0.850077,-1.19373 q 0.566719,0.66921 1.495171,0.66921 1.350478,0 1.350478,-1.38665 v -0.20498 q -0.584803,0.64509 -1.477084,0.64509 -1.193726,0 -1.929254,-0.91037 -0.735528,-0.91639 -0.735528,-2.44774 z m 2.037775,0.1266 q 0,0.80185 0.301445,1.2721 0.301446,0.46423 0.84405,0.46423 0.657151,0 0.958596,-0.44011 v -2.74316 q -0.295415,-0.44614 -0.946539,-0.44614 -0.542602,0 -0.850077,0.48834 -0.307475,0.48232 -0.307475,1.40474 z"
         id="path49269"
         style="font-size:46.6667px;font-family:Roboto;-inkscape-font-specification:Roboto;white-space:pre;stroke:none;stroke-width:0.264583;stroke-opacity:0.133333" />
      <path
         d="m 65.364273,194.76639 -0.669211,-0.0482 q -0.958599,0 -1.2299,0.60289 v 4.12981 h -2.031746 v -6.52329 h 1.90514 l 0.06632,0.83802 q 0.512458,-0.9586 1.428853,-0.9586 0.325562,0 0.566719,0.0724 z"
         id="path49271"
         style="font-size:46.6667px;font-family:Roboto;-inkscape-font-specification:Roboto;white-space:pre;stroke:none;stroke-width:0.264583;stroke-opacity:0.133333" />
      <path
         d="m 69.590547,199.45086 q -0.108522,-0.19895 -0.192927,-0.5848 -0.560689,0.70538 -1.567518,0.70538 -0.922425,0 -1.567519,-0.55466 -0.645096,-0.56069 -0.645096,-1.40474 0,-1.06109 0.783762,-1.60369 0.783759,-0.54261 2.27893,-0.54261 h 0.62701 v -0.34364 q 0,-0.89831 -0.777733,-0.89831 -0.723471,0 -0.723471,0.71141 h -2.031746 q 0,-0.94654 0.801846,-1.53738 0.807876,-0.59083 2.055863,-0.59083 1.247987,0 1.971458,0.60892 0.723469,0.60892 0.741556,1.67001 v 2.88786 q 0.01206,0.89831 0.277331,1.37459 v 0.10249 z m -1.272104,-1.32636 q 0.379823,0 0.62701,-0.16278 0.253214,-0.16278 0.361736,-0.36776 v -1.04301 h -0.590836 q -1.06109,0 -1.06109,0.95257 0,0.27733 0.186896,0.45217 0.186896,0.16881 0.476284,0.16881 z"
         id="path49273"
         style="font-size:46.6667px;font-family:Roboto;-inkscape-font-specification:Roboto;white-space:pre;stroke:none;stroke-width:0.264583;stroke-opacity:0.133333" />
      <path
         d="m 74.389567,192.92757 0.06632,0.76567 q 0.693324,-0.88625 1.862936,-0.88625 1.235927,0 1.67001,0.98271 0.663181,-0.98271 1.917198,-0.98271 1.983515,0 2.037775,2.39951 v 4.24436 h -2.037775 v -4.11775 q 0,-0.5004 -0.16881,-0.7295 -0.168809,-0.2291 -0.61495,-0.2291 -0.602893,0 -0.89831,0.53658 l 0.006,0.0844 v 4.45537 h -2.037776 v -4.10569 q 0,-0.51246 -0.162782,-0.74156 -0.16278,-0.2291 -0.620977,-0.2291 -0.584806,0 -0.892281,0.53658 v 4.53977 h -2.031746 v -6.52329 z"
         id="path49275"
         style="font-size:46.6667px;font-family:Roboto;-inkscape-font-specification:Roboto;white-space:pre;stroke:none;stroke-width:0.264583;stroke-opacity:0.133333" />
      <path
         d="m 85.024587,192.92757 0.06632,0.76567 q 0.693324,-0.88625 1.862936,-0.88625 1.23593,0 1.67001,0.98271 0.663181,-0.98271 1.917198,-0.98271 1.983515,0 2.037775,2.39951 v 4.24436 h -2.037775 v -4.11775 q 0,-0.5004 -0.16881,-0.7295 -0.168809,-0.2291 -0.61495,-0.2291 -0.602892,0 -0.89831,0.53658 l 0.006,0.0844 v 4.45537 h -2.037776 v -4.10569 q 0,-0.51246 -0.16278,-0.74156 -0.162782,-0.2291 -0.620979,-0.2291 -0.584806,0 -0.892281,0.53658 v 4.53977 h -2.031746 v -6.52329 z"
         id="path49277"
         style="font-size:46.6667px;font-family:Roboto;-inkscape-font-specification:Roboto;white-space:pre;stroke:none;stroke-width:0.264583;stroke-opacity:0.133333" />
      <path
         d="m 95.882674,199.45086 h -2.037776 v -6.52329 h 2.037776 z m -2.158355,-8.20536 q 0,-0.43408 0.313505,-0.71141 0.313505,-0.27733 0.813903,-0.27733 0.500402,0 0.813906,0.27733 0.313502,0.27733 0.313502,0.71141 0,0.43408 -0.313502,0.71141 -0.313504,0.27733 -0.813906,0.27733 -0.500398,0 -0.813903,-0.27733 -0.313505,-0.27733 -0.313505,-0.71141 z"
         id="path49279"
         style="font-size:46.6667px;font-family:Roboto;-inkscape-font-specification:Roboto;white-space:pre;stroke:none;stroke-width:0.264583;stroke-opacity:0.133333" />
      <path
         d="m 100.28981,199.57144 q -1.501196,0 -2.429651,-0.89228 -0.928455,-0.89831 -0.928455,-2.33319 v -0.16881 q 0,-1.0008 0.367766,-1.76648 0.373793,-0.76567 1.085204,-1.18166 0.711415,-0.42203 1.688096,-0.42203 1.3746,0 2.17042,0.85611 0.79581,0.85008 0.79581,2.37539 v 0.78979 h -4.039376 q 0.108522,0.54863 0.476285,0.86214 0.367765,0.3135 0.952571,0.3135 0.96463,0 1.50723,-0.67524 l 0.92845,1.09727 q -0.37982,0.52451 -1.07917,0.83802 -0.69333,0.30747 -1.49518,0.30747 z m -0.2291,-5.19693 q -0.892276,0 -1.061086,1.18167 h 2.049836 v -0.15675 q 0.0121,-0.48834 -0.24719,-0.75362 -0.25924,-0.2713 -0.74156,-0.2713 z"
         id="path49281"
         style="font-size:46.6667px;font-family:Roboto;-inkscape-font-specification:Roboto;white-space:pre;stroke:none;stroke-width:0.264583;stroke-opacity:0.133333" />
      <path
         d="m 107.80185,194.76639 -0.66922,-0.0482 q -0.95859,0 -1.2299,0.60289 v 4.12981 h -2.03174 v -6.52329 h 1.90514 l 0.0663,0.83802 q 0.51246,-0.9586 1.42885,-0.9586 0.32556,0 0.56672,0.0724 z"
         id="path49283"
         style="font-size:46.6667px;font-family:Roboto;-inkscape-font-specification:Roboto;white-space:pre;stroke:none;stroke-width:0.264583;stroke-opacity:0.133333" />
      <path
         d="m 114.59041,196.24348 q 0,1.60369 -0.66318,2.46582 -0.66318,0.86214 -1.86896,0.86214 -0.99478,0 -1.6037,-0.78979 l -0.0844,0.66921 h -1.82073 v -9.26042 h 2.03175 v 3.26165 q 0.56671,-0.6451 1.46502,-0.6451 1.21785,0 1.88103,0.8742 0.66318,0.87419 0.66318,2.4598 z m -2.03777,-0.12661 q 0,-0.94051 -0.25322,-1.33842 -0.24718,-0.40394 -0.76567,-0.40394 -0.6873,0 -0.95257,0.52452 v 2.59243 q 0.25924,0.51849 0.96463,0.51849 0.71744,0 0.91037,-0.69936 0.0965,-0.34364 0.0965,-1.19372 z"
         id="path49285"
         style="font-size:46.6667px;font-family:Roboto;-inkscape-font-specification:Roboto;white-space:pre;stroke:none;stroke-width:0.264583;stroke-opacity:0.133333" />
      <path
         d="m 119.16033,199.45086 q -0.10852,-0.19895 -0.19292,-0.5848 -0.56069,0.70538 -1.56752,0.70538 -0.92243,0 -1.56752,-0.55466 -0.6451,-0.56069 -0.6451,-1.40474 0,-1.06109 0.78377,-1.60369 0.78376,-0.54261 2.27893,-0.54261 h 0.62701 v -0.34364 q 0,-0.89831 -0.77774,-0.89831 -0.72347,0 -0.72347,0.71141 h -2.03174 q 0,-0.94654 0.80184,-1.53738 0.80788,-0.59083 2.05587,-0.59083 1.24798,0 1.97145,0.60892 0.72347,0.60892 0.74156,1.67001 v 2.88786 q 0.0121,0.89831 0.27733,1.37459 v 0.10249 z m -1.2721,-1.32636 q 0.37982,0 0.62701,-0.16278 0.25321,-0.16278 0.36174,-0.36776 v -1.04301 h -0.59084 q -1.06109,0 -1.06109,0.95257 0,0.27733 0.1869,0.45217 0.18689,0.16881 0.47628,0.16881 z"
         id="path49287"
         style="font-size:46.6667px;font-family:Roboto;-inkscape-font-specification:Roboto;white-space:pre;stroke:none;stroke-width:0.264583;stroke-opacity:0.133333" />
      <path
         d="m 125.98508,194.76639 -0.66921,-0.0482 q -0.9586,0 -1.2299,0.60289 v 4.12981 h -2.03175 v -6.52329 h 1.90514 l 0.0663,0.83802 q 0.51246,-0.9586 1.42885,-0.9586 0.32557,0 0.56672,0.0724 z"
         id="path49289"
         style="font-size:46.6667px;font-family:Roboto;-inkscape-font-specification:Roboto;white-space:pre;stroke:none;stroke-width:0.264583;stroke-opacity:0.133333" />
      <path
         d="m 36.105923,161.52775 h 5.112525 v -0.94654 h 1.410766 v 0.94654 h 0.518488 q 1.115351,0 1.730301,0.65715 0.61495,0.65715 0.61495,1.84485 0,0.43408 -0.126608,0.95257 l -1.495171,0.006 q 0.05426,-0.18689 0.05426,-0.5004 0,-0.92242 -0.795819,-0.92242 h -0.500401 v 1.2721 h -1.410766 v -1.2721 h -5.112525 z"
         id="path49405"
         style="font-size:46.6667px;font-family:Roboto;-inkscape-font-specification:Roboto;white-space:pre;stroke:none;stroke-width:0.264583;stroke-opacity:0.133333" />
      <path
         d="m 40.790395,169.49798 0.04823,-0.66921 q 0,-0.95859 -0.602892,-1.2299 h -4.12981 v -2.03174 h 6.523291 v 1.90514 l -0.83802,0.0663 q 0.958599,0.51246 0.958599,1.42886 0,0.32556 -0.07234,0.56672 z"
         id="path49402"
         style="font-size:46.6667px;font-family:Roboto;-inkscape-font-specification:Roboto;white-space:pre;stroke:none;stroke-width:0.264583;stroke-opacity:0.133333" />
      <path
         d="m 35.985344,173.27209 q 0,-1.50121 0.892281,-2.42966 0.898308,-0.92845 2.333191,-0.92845 h 0.16881 q 1.000802,0 1.766474,0.36776 0.765673,0.3738 1.181669,1.08521 0.422024,0.71141 0.422024,1.6881 0,1.37459 -0.856107,2.17041 -0.850077,0.79582 -2.375395,0.79582 h -0.789789 v -4.03938 q -0.54863,0.10852 -0.862134,0.47628 -0.313505,0.36777 -0.313505,0.95257 0,0.96463 0.67524,1.50723 l -1.097264,0.92846 q -0.524515,-0.37983 -0.83802,-1.07918 -0.307475,-0.69333 -0.307475,-1.49517 z m 5.19693,-0.2291 q 0,-0.89228 -1.181669,-1.06109 v 2.04983 h 0.156753 q 0.488341,0.0121 0.753615,-0.24718 0.271301,-0.25925 0.271301,-0.74156 z"
         id="path49399"
         style="font-size:46.6667px;font-family:Roboto;-inkscape-font-specification:Roboto;white-space:pre;stroke:none;stroke-width:0.264583;stroke-opacity:0.133333" />
      <path
         d="m 36.105923,178.98148 v -2.03778 h 6.523291 v 2.03778 z m 8.205361,-2.15836 q 0.434084,0 0.711412,0.31351 0.277331,0.3135 0.277331,0.8139 0,0.5004 -0.277331,0.8139 -0.277328,0.31351 -0.711412,0.31351 -0.434083,0 -0.711411,-0.31351 -0.277331,-0.3135 -0.277331,-0.8139 0,-0.5004 0.277331,-0.8139 0.277328,-0.31351 0.711411,-0.31351 z"
         id="path49396"
         style="font-size:46.6667px;font-family:Roboto;-inkscape-font-specification:Roboto;white-space:pre;stroke:none;stroke-width:0.264583;stroke-opacity:0.133333" />
    </g>
  </g>
</svg>
