<?xml version="1.0" encoding="UTF-8" standalone="no"?>
<!-- Created with Inkscape (http://www.inkscape.org/) -->

<svg
   width="217.11044mm"
   height="216.18494mm"
   viewBox="0 0 217.11044 216.18495"
   version="1.1"
   id="svg973"
   inkscape:version="1.1.2 (b8e25be833, 2022-02-05)"
   sodipodi:docname="vorläufig_final_weiß.svg"
   xmlns:inkscape="http://www.inkscape.org/namespaces/inkscape"
   xmlns:sodipodi="http://sodipodi.sourceforge.net/DTD/sodipodi-0.dtd"
   xmlns="http://www.w3.org/2000/svg"
   xmlns:svg="http://www.w3.org/2000/svg">
  <sodipodi:namedview
     id="namedview975"
     pagecolor="#ffffff"
     bordercolor="#999999"
     borderopacity="1"
     inkscape:pageshadow="0"
     inkscape:pageopacity="0"
     inkscape:pagecheckerboard="true"
     inkscape:document-units="px"
     showgrid="false"
     showborder="true"
     inkscape:snap-bbox="true"
     borderlayer="false"
     fit-margin-top="10"
     fit-margin-left="10"
     fit-margin-right="10"
     fit-margin-bottom="10"
     inkscape:zoom="0.69043209"
     inkscape:cx="113.69692"
     inkscape:cy="463.47788"
     inkscape:window-width="1920"
     inkscape:window-height="1017"
     inkscape:window-x="-8"
     inkscape:window-y="-8"
     inkscape:window-maximized="1"
     inkscape:current-layer="layer1"
     inkscape:snap-global="true"
     inkscape:object-nodes="false"
     showguides="true"
     inkscape:guide-bbox="true"
     inkscape:snap-text-baseline="false"
     inkscape:bbox-paths="false"
     inkscape:bbox-nodes="false"
     inkscape:snap-bbox-edge-midpoints="false"
     lock-margins="true" />
  <defs
     id="defs970" />
  <g
     inkscape:label="Ebene 1"
     inkscape:groupmode="layer"
     id="layer1"
     transform="translate(69.368065,-137.26651)">
    <path
       id="path46376"
       style="color:#000000;fill:#ffffff;stroke-width:0.999999;stroke-linecap:round;stroke-linejoin:round;-inkscape-stroke:none;paint-order:fill markers stroke"
       d="m 360.97656,37.794922 c -1.50276,-0.0027 -3.08699,0.109606 -4.7539,0.335937 l -12.72657,1.728516 11.75977,86.609375 12.72656,-1.72656 -4.96094,-36.531252 2.23829,-0.302735 12.14843,35.552737 12.72657,-1.72656 -14.25196,-40.009771 c 2.21132,-1.980396 3.91989,-4.852727 5.12891,-8.617187 1.24296,-3.809083 1.53437,-8.148905 0.87305,-13.019531 -1.11466,-8.209361 -3.76292,-14.168633 -7.94727,-17.88086 -3.27319,-2.930866 -7.59394,-4.402487 -12.96094,-4.412109 z m 102.37891,0.07031 -15.95899,85.937498 28.87891,5.36329 2.41016,-12.97852 -16.25196,-3.01953 4.4961,-24.201175 11.6914,2.169922 2.34375,-12.626953 -11.6914,-2.169922 4.29883,-23.150391 16.25195,3.017578 2.41016,-12.978515 z M 359.8418,50.599609 c 2.60943,-0.0069 4.58002,0.826247 5.91211,2.498047 1.67343,2.012977 2.79157,5.08271 3.35156,9.207032 0.35734,2.63171 0.37083,4.948438 0.043,6.953124 -0.32786,2.004687 -1.10712,3.631713 -2.33789,4.878907 -1.23611,1.207937 -3.03192,1.971015 -5.38867,2.291015 l -3.48829,-25.6875 c 0.67021,-0.091 1.30603,-0.139023 1.90821,-0.140625 z m -95.49414,12.931641 -27.53516,13.263672 37.93359,78.744138 11.57032,-5.57422 -16.51563,-34.2832 10.71484,-5.16016 -5.72851,-11.892574 -10.71484,5.160154 -9.96094,-20.675779 15.96484,-7.691406 z m 307.13086,7.566406 -39.21485,78.115234 11.47656,5.76172 39.2168,-78.115235 z m 41.11914,72.382814 a 4.9999996,4.9999996 0 0 0 -3.33789,1.87305 4.9999996,4.9999996 0 0 0 0.83398,7.02148 c 54.19692,42.67173 93.33385,101.54924 111.69922,168.03906 a 4.9999996,4.9999996 0 0 0 6.15234,3.48828 4.9999996,4.9999996 0 0 0 3.48828,-6.15039 C 712.50084,249.20807 672.15246,188.50754 616.28125,144.51758 a 4.9999996,4.9999996 0 0 0 -3.68359,-1.03711 z m -405.32032,0.0625 a 4.9999996,4.9999996 0 0 0 -3.68359,1.03906 C 147.7671,188.56466 107.45034,249.23329 88.525391,317.73828 a 4.9999996,4.9999996 0 0 0 3.488281,6.15039 4.9999996,4.9999996 0 0 0 6.152344,-3.48828 C 116.52384,253.94832 155.62953,195.10014 209.7832,152.43555 a 4.9999996,4.9999996 0 0 0 0.83399,-7.02149 4.9999996,4.9999996 0 0 0 -3.33985,-1.87109 z m 58.17383,110.78906 v 7.88281 51.63672 H 147.03711 l 5.45898,11.31055 35.57422,73.69727 -41.0332,85.00976 h 118.41406 v 56.17774 l 144.52735,83.75585 144.52734,-83.75585 v -56.17774 h 118.41016 l -41.03125,-85.00976 41.03125,-85.00782 h -12.5586 -105.85156 v -59.51953 z m 15.76758,15.76758 h 257.51953 v 43.75195 170.01758 47.0918 l -73.14453,42.38867 -55.61523,-32.23047 -55.61719,32.23047 -73.14258,-42.38867 z m 70.76953,15.37109 v 24.39258 h -23.12305 a 7.8843459,7.8843459 0 0 0 -7.88476,7.88281 v 23.125 h -24.39258 v 15.76758 h 24.39258 v 17.63672 h -24.39258 v 15.76758 h 24.39258 v 17.63476 h -24.39258 v 15.76758 h 24.39258 v 17.63672 h -24.39258 v 15.76758 h 24.39258 v 23.125 a 7.8843459,7.8843459 0 0 0 7.88476,7.88281 h 23.125 V 512.25 h 15.76758 v -24.39258 h 17.63477 V 512.25 h 15.76758 v -24.39258 h 17.63672 V 512.25 h 15.76367 v -24.39258 h 17.63672 V 512.25 h 15.76757 v -24.39258 h 23.12696 a 7.8843459,7.8843459 0 0 0 7.88281,-7.88281 v -23.12695 h 24.39258 v -15.76758 h -24.39258 v -17.63281 h 24.39258 v -15.76758 h -24.39258 v -17.63867 h 24.39258 v -15.76563 h -24.39258 v -17.63477 h 24.39258 v -15.76757 h -24.39258 v -23.12696 a 7.8843459,7.8843459 0 0 0 -7.88281,-7.88281 h -23.125 V 285.4707 h -15.76758 v 24.39258 H 434.5625 V 285.4707 h -15.76758 v 24.39258 H 401.16016 V 285.4707 h -15.76758 v 24.39258 H 367.75586 V 285.4707 Z m -15.24023,40.16016 H 483.20703 V 472.08984 H 336.74805 Z m -164.5918,3.98828 h 93.29492 v 14.27539 h -86.40429 z m 382.34961,0 h 93.29492 l -6.89062,14.27539 h -86.4043 z m -188.32617,17.55859 a 7.8843462,7.8843462 0 0 0 -7.88281,7.88477 v 87.5957 a 7.8843462,7.8843462 0 0 0 7.88281,7.88477 h 87.5957 a 7.8843462,7.8843462 0 0 0 7.88281,-7.88477 v -87.5957 a 7.8843462,7.8843462 0 0 0 -7.88281,-7.88477 z M 186.6582,359.66211 h 78.79297 v 78.39648 h -78.79492 l 18.92383,-39.19921 z m 367.84766,0 h 78.79297 l -18.92188,39.19727 18.92188,39.19921 h -78.79297 z m -180.44141,3.2832 h 71.82617 v 71.83008 h -71.82617 z m -335.830075,15.01367 -0.439453,12.83594 34.941406,1.19336 c 0.03704,4.72113 1.071263,8.74283 3.09961,12.06445 2.066595,3.3626 4.990773,5.9621 8.77539,7.79688 3.784643,1.83466 8.332002,2.84202 13.640625,3.02344 5.308627,0.18131 9.952187,-0.47258 13.929687,-1.96289 3.97752,-1.49032 7.09213,-3.8435 9.34375,-7.0586 2.25013,-3.17551 3.45845,-7.19944 3.625,-12.07226 l 0.4375,-12.83594 z m 743.517575,0.42383 -13.19336,0.46094 0.57813,16.51953 -24.59961,0.86133 -0.41602,-11.88477 -12.83593,0.44922 0.41601,11.88477 -23.53125,0.82422 -0.57812,-16.51953 -13.19336,0.46093 1.02929,29.35547 87.35157,-3.05859 z m -695.941403,14.05274 26.265623,0.89648 c -0.0758,2.21853 -0.59103,3.96597 -1.54687,5.24219 -0.95718,1.31583 -2.41679,2.21869 -4.37696,2.70703 -1.96152,0.52797 -4.48608,0.73839 -7.576168,0.63281 -3.050457,-0.10419 -5.536099,-0.48592 -7.457031,-1.14648 -1.922268,-0.62093 -3.317074,-1.60097 -4.183594,-2.93946 -0.826885,-1.33712 -1.202102,-3.13443 -1.125,-5.39257 z m 40.267573,45.58984 -86.185542,14.55273 2.138672,12.66407 36.351562,-6.13867 0.375,2.22851 -35.142578,13.29102 2.138672,12.66406 39.527344,-15.53906 c 2.050847,2.14614 4.975769,3.76292 8.777344,4.84961 3.847256,1.11919 8.194296,1.26959 13.041016,0.45117 8.16904,-1.37945 14.04216,-4.22128 17.61719,-8.52344 3.61408,-4.30879 4.78043,-10.2532 3.5,-17.83594 z m 587.82227,1.98047 c -4.75775,-0.003 -8.66512,0.51877 -11.71875,1.56445 -3.48989,1.19509 -6.12998,3.09116 -7.92187,5.68946 -1.7919,2.59829 -3.02224,5.93181 -3.68946,10 l -2.11719,12.9082 86.25391,14.14648 2.11719,-12.9082 c 0.66719,-4.06818 0.58676,-7.61637 -0.24219,-10.64453 -0.86806,-3.03456 -2.74466,-5.6713 -5.63086,-7.91211 -2.92533,-2.24721 -7.10439,-4.19927 -12.53711,-5.85352 -5.46545,-1.69975 -12.4822,-3.25124 -21.04883,-4.65625 -8.52752,-1.3986 -15.65294,-2.16572 -21.375,-2.30078 -0.71445,-0.0218 -1.41016,-0.0328 -2.08984,-0.0332 z m 0.79492,12.65625 c 1.23885,0.009 2.57578,0.0874 4.00781,0.23437 4.54337,0.46398 10.00282,1.21796 16.37891,2.26368 6.29785,1.03289 11.71236,2.06151 16.24414,3.08593 4.53178,1.02446 7.92311,2.38504 10.17578,4.08008 2.25265,1.69504 3.12261,4.10698 2.60938,7.23633 l -60.9043,-9.98828 c 0.50681,-3.09024 2.07787,-5.08346 4.71485,-5.97656 1.79043,-0.64531 4.04797,-0.95622 6.77343,-0.93555 z m -599.02539,0.14453 c 0.60062,3.55684 -0.1,6.18743 -2.10351,7.89258 -1.95782,1.73765 -4.98969,2.95347 -9.09375,3.64648 -2.61879,0.44228 -4.934986,0.53241 -6.949222,0.26953 -2.014237,-0.26287 -3.664848,-0.98986 -4.951172,-2.17968 -1.24727,-1.19643 -2.068825,-2.96733 -2.464844,-5.3125 z m 63.37696,1.01953 h 86.40429 v 14.27539 h -93.29492 z m 375.45898,0 h 86.4043 l 6.89062,14.27539 H 554.50586 Z M 129.10352,498.5332 c -2.56627,0.0434 -5.21569,0.59591 -7.94727,1.65821 l -47.990234,18.66406 c -3.324977,1.29308 -6.074604,3.08443 -8.246094,5.375 -2.157128,2.32748 -3.55143,4.97547 -4.183594,7.94336 -0.617776,3.0048 -0.279405,6.16914 1.013672,9.49414 1.293077,3.32498 3.175303,5.8679 5.646484,7.62891 2.485544,1.79787 5.3027,2.80756 8.451172,3.02929 3.16286,0.2586 6.405493,-0.2577 9.730469,-1.55078 l 47.992185,-18.66406 c 3.32498,-1.29308 6.06553,-3.10221 8.22266,-5.42969 2.17149,-2.29057 3.56582,-4.93853 4.18359,-7.94336 0.63217,-2.96786 0.30089,-6.11448 -0.99218,-9.43945 -1.29308,-3.325 -3.18243,-5.8876 -5.66797,-7.68555 -2.47118,-1.76101 -5.28639,-2.7707 -8.44922,-3.0293 -0.58342,-0.0442 -1.17146,-0.0608 -1.76367,-0.0508 z m 0.0723,12.92969 c 0.36906,-0.008 0.73571,0.008 1.10156,0.0469 1.51474,0.1765 2.53874,0.94752 3.07032,2.31445 0.54596,1.40389 0.31263,2.6647 -0.69922,3.78125 -0.97492,1.10218 -2.21967,1.94806 -3.73438,2.53711 l -47.990232,18.66211 c -1.514708,0.589 -3.015969,0.83302 -4.501953,0.73047 -1.449046,-0.11699 -2.460467,-0.91481 -3.035156,-2.39258 -0.545966,-1.40389 -0.330386,-2.65761 0.644531,-3.75977 1.011855,-1.11655 2.274354,-1.96951 3.789062,-2.55859 l 47.990238,-18.66211 c 1.13603,-0.44181 2.25806,-0.67537 3.36523,-0.69922 z m 622.12891,7.70899 -4.10938,11.79101 12.46485,4.34375 4.10937,-11.79102 z m -76.60742,16.6582 c -1.08925,0.0308 -2.1486,0.15334 -3.17579,0.36523 -5.51299,1.11083 -10.13495,5.0263 -13.86718,11.75 l -6.23242,11.23047 76.41992,42.41992 6.23437,-11.22851 -32.23242,-17.89258 1.0957,-1.97461 35.75391,11.54883 6.23242,-11.22852 -40.58203,-12.52929 c -0.26285,-2.9568 -1.54003,-6.04777 -3.83203,-9.26954 -2.30743,-3.27564 -5.60865,-6.10469 -9.90625,-8.49023 -5.88542,-3.26691 -11.18812,-4.83465 -15.9082,-4.70117 z m 1.14843,13.42578 c 2.51087,-9.2e-4 5.47311,0.94411 8.88477,2.83789 2.32212,1.28897 4.18797,2.66638 5.59765,4.12891 1.40967,1.46255 2.24539,3.05853 2.50782,4.79101 0.22778,1.71324 -0.23633,3.60996 -1.39063,5.68945 L 668.7793,554.12109 c 1.75067,-3.15381 3.94069,-4.77162 6.57031,-4.85351 0.16339,-0.008 0.3287,-0.0117 0.49609,-0.0117 z m -518.45312,3.42773 c -0.76545,-0.007 -1.54063,0.0386 -2.32813,0.13477 -3.14998,0.38478 -6.20742,1.53545 -9.16992,3.45117 l -43.23828,27.96094 c -2.995779,1.93723 -5.411096,4.11207 -7.248047,6.52734 -1.815559,2.44853 -2.821168,5.0581 -3.013672,7.82617 -0.192604,2.76808 0.670221,5.63321 2.585938,8.59571 1.140838,1.76415 2.589924,3.09312 4.347656,3.98633 1.812535,0.90486 3.768555,1.33731 5.869145,1.30078 l -3.1543,3.88281 4.13281,6.39062 36.54688,-23.63476 -9.75,-15.07813 -10.08594,6.52149 2.77734,4.29297 -12.2832,7.94336 c -1.43131,0.92568 -2.8677,1.47666 -4.31055,1.65429 -1.40956,0.15622 -2.54525,-0.43026 -3.40625,-1.76172 -0.81789,-1.26485 -0.87694,-2.52462 -0.17773,-3.77929 0.73252,-1.2762 1.81476,-2.37716 3.24609,-3.30274 l 44.13672,-28.54297 c 1.36474,-0.88264 2.76809,-1.4122 4.21094,-1.58984 1.49765,-0.16597 2.66637,0.40105 3.50586,1.69922 0.8611,1.33145 0.93169,2.60676 0.21094,3.82812 -0.72076,1.2214 -1.81276,2.30681 -3.27735,3.25391 l -11.28515,7.29688 6.9746,10.7832 11.28321,-7.29688 c 2.1969,-1.42067 4.02927,-3.07611 5.49609,-4.96875 1.52163,-1.88089 2.60531,-3.92864 3.25195,-6.14062 0.66817,-2.1787 0.82052,-4.4242 0.45704,-6.73828 -0.30868,-2.30229 -1.18282,-4.56866 -2.625,-6.79883 -1.89421,-2.92921 -4.25746,-5.01198 -7.08789,-6.25 -2.09787,-0.94467 -4.29547,-1.42755 -6.5918,-1.44727 z m 251.01172,8.80274 h 3.14453 v 20.91211 h 13.88476 v 3.15234 h -30.91406 v -3.15234 h 13.88477 z m 222.34765,25.65039 -10.28125,11.86133 57.39844,67.22656 8.17969,-9.43555 -11.92188,-13.48047 8.10157,-9.3457 15.0371,9.88672 8.17774,-9.43555 z m -229.24218,1.21875 h 16.93359 v 3.15234 h -16.93359 z m 3.46875,5.94922 h 9.99609 v 1.58008 1.57226 h -9.99609 z m -209.90235,0.2832 -62.38476,61.21875 8.99414,9.16797 26.3125,-25.82031 1.58398,1.61328 -21.23242,30.99609 8.99414,9.16797 23.54492,-35.34961 c 2.90964,0.5881 6.23441,0.2411 9.97461,-1.04101 3.79626,-1.28157 7.4487,-3.64327 10.95703,-7.08594 5.91324,-5.80258 9.10501,-11.49081 9.57813,-17.06446 0.5014,-5.60141 -1.94006,-11.14593 -7.32617,-16.63476 z m 447.39258,12.62109 3.73828,2.76758 24.60938,16.45313 -5.76368,6.65039 -19.78125,-22.02539 -3.26953,-3.30664 z m -447.47852,5.45899 c 2.52648,2.57466 3.45586,5.13325 2.78711,7.67773 -0.61268,2.54501 -2.40423,5.27623 -5.375,8.19141 -1.89563,1.86016 -3.74601,3.25735 -5.54882,4.19336 -1.80281,0.93599 -3.57101,1.2836 -5.30664,1.04297 -1.70735,-0.2684 -3.39475,-1.25163 -5.06055,-2.94922 z m 398.1211,17.91211 c -1.08933,0.002 -2.184,0.11824 -3.28516,0.34765 -3.51609,0.67861 -7.04206,2.3604 -10.57812,5.04493 l -10.41797,7.9082 52.85156,69.61719 12.12305,-9.20508 c 3.53607,-2.68452 5.88011,-5.75732 7.0332,-9.2207 1.16059,-3.51892 1.23074,-7.23025 0.20899,-11.13282 -0.99021,-3.92652 -2.96003,-7.83148 -5.90821,-11.71484 -2.99612,-3.94651 -6.18433,-6.99973 -9.5664,-9.16016 -3.40605,-2.192 -6.90008,-3.02442 -10.48047,-2.49609 1.29574,-3.47213 1.42391,-6.77856 0.38281,-9.91992 -1.00953,-3.16533 -2.78546,-6.42096 -5.32617,-9.76758 -3.18787,-4.19908 -6.49946,-7.08474 -9.9336,-8.6582 -2.33926,-1.09822 -4.707,-1.64638 -7.10351,-1.64258 z m -347.58203,9.04492 -59.47071,65.40039 10.39063,6.92773 11.87305,-13.52343 10.29101,6.86133 -7.91601,16.1621 10.38867,6.92579 37.5039,-80.04688 z m 347.07812,4.19531 c 0.59853,-0.006 1.18026,0.075 1.74414,0.24414 2.26314,0.621 4.5802,2.49545 6.95313,5.6211 2.34895,3.09404 3.57063,5.85004 3.66406,8.26757 0.125,2.39353 -1.24999,4.68014 -4.12305,6.86133 L 586.75195,646.25 c 2.10744,-1.59993 4.05988,-2.41026 5.85547,-2.42969 z m -353.04883,18.26563 0.59375,0.39453 -2.27734,4.05664 -13.22656,26.48437 -7.32227,-4.88086 19.36133,-22.39453 z M 541,662.45898 c -3.48441,-0.004 -7.28453,0.98033 -11.40234,2.95313 l -11.58399,5.54883 37.76563,78.82617 11.58203,-5.54883 -15.92774,-33.24609 2.03711,-0.97657 22.47071,30.11133 11.58203,-5.54883 -25.83985,-33.70507 c 1.49717,-2.56333 2.24452,-5.82351 2.24024,-9.77735 0.0144,-4.00672 -1.04033,-8.22537 -3.16406,-12.6582 -3.57952,-7.4715 -7.93127,-12.33258 -13.05274,-14.58203 -2.08755,-0.92836 -4.32296,-1.39363 -6.70703,-1.39649 z m -253.94922,2.54688 -30.72656,81.82617 11.13476,4.17969 20.60743,-54.88477 0.66797,0.25196 -0.84961,3.61718 -12.1875,54.10938 6.23437,2.3418 26.4375,-48.75977 1.74024,-3.2832 0.66796,0.25 -20.60742,54.88672 11.13281,4.17968 30.72461,-81.82617 -15.25195,-5.72851 -22.49609,39.95117 -2.18555,4.13281 -0.22266,-0.084 1.07227,-4.55079 9.35937,-44.88281 z m 326.78125,6.77734 c 0.81111,0.004 1.58783,0.17754 2.32813,0.51758 2.34496,1.05658 4.84725,3.33729 7.50781,6.8418 2.61261,3.44133 4.13683,6.46453 4.57226,9.07031 0.41147,2.57424 -0.92937,5.03582 -4.02343,7.38477 l -16.25196,-21.40625 c 2.12717,-1.61491 4.08276,-2.41786 5.86719,-2.40821 z m -74.25586,3.89649 c 1.36121,-0.0258 2.5897,0.32505 3.68555,1.05273 2.21031,1.40251 4.21535,3.98078 6.01367,7.73438 1.1475,2.39518 1.8728,4.59687 2.17578,6.60547 0.30299,2.00859 0.0603,3.79472 -0.72851,5.35937 -0.80591,1.52892 -2.28281,2.80834 -4.42774,3.83594 l -11.20117,-23.38086 c 1.62657,-0.77934 3.12121,-1.18121 4.48242,-1.20703 z m -45.19726,3.66992 -28.47071,7.22656 21.50196,84.71875 28.4707,-7.22656 -3.24609,-12.79297 -16.02344,4.06641 -6.05469,-23.86133 11.52539,-2.92383 -3.1582,-12.44922 -11.52735,2.92578 -5.79296,-22.82226 16.02148,-4.06641 z m -141.60547,7.52539 -10.18164,86.81055 11.81054,1.38476 6.83008,-58.22851 0.70703,0.084 0.043,3.7168 1.16016,55.45312 6.61523,0.77539 13.95703,-53.68164 0.90235,-3.60547 0.70898,0.084 -6.82812,58.22851 11.81054,1.38477 10.17969,-86.81055 -16.17969,-1.89843 -12.24609,44.18359 -1.13086,4.53711 -0.23633,-0.0273 -0.0508,-4.67578 -1.69141,-45.8164 z m 86.00781,3.43555 -12.80469,0.99023 6.73047,87.14453 12.80469,-0.98828 z"
       transform="matrix(0.26458334,0,0,0.26458334,-69.367971,137.26662)" />
  </g>
</svg>
